<svg xmlns="http://www.w3.org/2000/svg" viewBox="0 0 940 360" role="img" aria-label="OTIF % statistical control chart with robust centre line and control limits, out-of-control months highlighted" font-family="system-ui, -apple-system, Segoe UI, Roboto, sans-serif">
<rect x="0" y="0" width="940" height="360" fill="#fcfcfb"/>
<text x="66" y="26" font-size="15" font-weight="700" fill="#0b0b0b">OTIF % &#8212; statistical control monitor</text>
<text x="66" y="44" font-size="12" fill="#52514e">Robust control limits: median &#177; 3.5&#183;MAD/0.6745 (Iglewicz&#8211;Hoaglin) &#183; 24 months</text>
<line x1="66" y1="308.0" x2="812" y2="308.0" stroke="#e1e0d9" stroke-width="1"/>
<text x="58" y="311.0" text-anchor="end" font-size="11" fill="#898781">77.2%</text>
<line x1="66" y1="245.5" x2="812" y2="245.5" stroke="#e1e0d9" stroke-width="1"/>
<text x="58" y="248.5" text-anchor="end" font-size="11" fill="#898781">81.0%</text>
<line x1="66" y1="183.0" x2="812" y2="183.0" stroke="#e1e0d9" stroke-width="1"/>
<text x="58" y="186.0" text-anchor="end" font-size="11" fill="#898781">84.9%</text>
<line x1="66" y1="120.5" x2="812" y2="120.5" stroke="#e1e0d9" stroke-width="1"/>
<text x="58" y="123.5" text-anchor="end" font-size="11" fill="#898781">88.8%</text>
<line x1="66" y1="58.0" x2="812" y2="58.0" stroke="#e1e0d9" stroke-width="1"/>
<text x="58" y="61.0" text-anchor="end" font-size="11" fill="#898781">92.6%</text>
<rect x="66" y="88.3" width="746" height="138.6" fill="#2f6bff" opacity="0.05"/>
<line x1="66" y1="88.3" x2="812" y2="88.3" stroke="#e34948" stroke-width="1.4" stroke-dasharray="5 4"/>
<text x="820" y="91.3" font-size="11" font-weight="600" fill="#e34948">UCL 90.74%</text>
<line x1="66" y1="157.6" x2="812" y2="157.6" stroke="#8b8f99" stroke-width="1.4"/>
<text x="820" y="160.6" font-size="11" font-weight="600" fill="#8b8f99">&#956; 86.46%</text>
<line x1="66" y1="226.9" x2="812" y2="226.9" stroke="#e34948" stroke-width="1.4" stroke-dasharray="5 4"/>
<text x="820" y="229.9" font-size="11" font-weight="600" fill="#e34948">LCL 82.18%</text>
<polyline points="66.0,144.5 98.4,136.1 130.9,144.0 163.3,156.6 195.7,245.8 228.2,167.5 260.6,146.6 293.0,164.5 325.5,257.3 357.9,237.6 390.3,149.3 422.8,154.5 455.2,134.6 487.7,158.6 520.1,173.9 552.5,156.6 585.0,233.3 617.4,151.1 649.8,127.6 682.3,161.3 714.7,277.7 747.1,254.7 779.6,137.5 812.0,166.3" fill="none" stroke="#2f6bff" stroke-width="1.6"/>
<circle cx="66.0" cy="144.5" r="2.6" fill="#2f6bff"/>
<circle cx="98.4" cy="136.1" r="2.6" fill="#2f6bff"/>
<circle cx="130.9" cy="144.0" r="2.6" fill="#2f6bff"/>
<circle cx="163.3" cy="156.6" r="2.6" fill="#2f6bff"/>
<circle cx="195.7" cy="245.8" r="5" fill="#e34948"/>
<text x="195.7" y="262.8" text-anchor="middle" font-size="10.5" font-weight="650" fill="#e34948">81.01%</text>
<circle cx="228.2" cy="167.5" r="2.6" fill="#2f6bff"/>
<circle cx="260.6" cy="146.6" r="2.6" fill="#2f6bff"/>
<circle cx="293.0" cy="164.5" r="2.6" fill="#2f6bff"/>
<circle cx="325.5" cy="257.3" r="5" fill="#e34948"/>
<text x="325.5" y="274.3" text-anchor="middle" font-size="10.5" font-weight="650" fill="#e34948">80.30%</text>
<circle cx="357.9" cy="237.6" r="5" fill="#e34948"/>
<text x="357.9" y="254.6" text-anchor="middle" font-size="10.5" font-weight="650" fill="#e34948">81.52%</text>
<circle cx="390.3" cy="149.3" r="2.6" fill="#2f6bff"/>
<circle cx="422.8" cy="154.5" r="2.6" fill="#2f6bff"/>
<circle cx="455.2" cy="134.6" r="2.6" fill="#2f6bff"/>
<circle cx="487.7" cy="158.6" r="2.6" fill="#2f6bff"/>
<circle cx="520.1" cy="173.9" r="2.6" fill="#2f6bff"/>
<circle cx="552.5" cy="156.6" r="2.6" fill="#2f6bff"/>
<circle cx="585.0" cy="233.3" r="5" fill="#e34948"/>
<text x="585.0" y="250.3" text-anchor="middle" font-size="10.5" font-weight="650" fill="#e34948">81.78%</text>
<circle cx="617.4" cy="151.1" r="2.6" fill="#2f6bff"/>
<circle cx="649.8" cy="127.6" r="2.6" fill="#2f6bff"/>
<circle cx="682.3" cy="161.3" r="2.6" fill="#2f6bff"/>
<circle cx="714.7" cy="277.7" r="5" fill="#e34948"/>
<text x="714.7" y="294.7" text-anchor="middle" font-size="10.5" font-weight="650" fill="#e34948">79.04%</text>
<circle cx="747.1" cy="254.7" r="5" fill="#e34948"/>
<text x="747.1" y="271.7" text-anchor="middle" font-size="10.5" font-weight="650" fill="#e34948">80.46%</text>
<circle cx="779.6" cy="137.5" r="2.6" fill="#2f6bff"/>
<circle cx="812.0" cy="166.3" r="2.6" fill="#2f6bff"/>
<text x="66.0" y="330" text-anchor="middle" font-size="9.5" fill="#898781">2024-01</text>
<text x="163.3" y="330" text-anchor="middle" font-size="9.5" fill="#898781">2024-04</text>
<text x="260.6" y="330" text-anchor="middle" font-size="9.5" fill="#898781">2024-07</text>
<text x="357.9" y="330" text-anchor="middle" font-size="9.5" fill="#898781">2024-10</text>
<text x="455.2" y="330" text-anchor="middle" font-size="9.5" fill="#898781">2025-01</text>
<text x="552.5" y="330" text-anchor="middle" font-size="9.5" fill="#898781">2025-04</text>
<text x="649.8" y="330" text-anchor="middle" font-size="9.5" fill="#898781">2025-07</text>
<text x="747.1" y="330" text-anchor="middle" font-size="9.5" fill="#898781">2025-10</text>
<text x="66" y="352" font-size="11" fill="#898781">6 of 24 months out of control (red) &#183; centre = median, limits robust to outliers &#183; synthetic data</text>
</svg>
